<svg id="a" height="512" viewBox="0 0 512 512" width="512" xmlns="http://www.w3.org/2000/svg" data-name="filled outline"><path d="m421.463 118.574s-39.598-51.061-107.095-42.637c-45.603 5.691-190.616 45.879-190.616 45.879l-75.94-63.816-39.812 4.968 41.273 99.776-28.099 5.785 3.834 30.723 35.469-4.426 54.4 11.79 312.703-39.024 76.42-29.716-82.537-19.301z" fill="#466e50"/><path d="m206.053 130.468-127.986 26.348 113.821 40.188 137.734-48.949z" fill="#6e9678"/><path d="m504 137.875-82.537-19.301 6.117 49.017z" fill="#5a8264"/><path d="m321.696 274.204s-7.781-25.531-30.113-25.531h-76.723c-8.402 0-24.822 12.766-24.822 12.766h-15.766v25.531h15.766s16.42 12.766 24.822 12.766h76.723c22.331 0 30.113-25.531 30.113-25.531z" fill="#464646"/><path d="m174.27 261.44v25.53l-11.69 19.15h-35.38l9.38-23.92 3.14-8-3.14-8-9.38-23.91h35.38z" fill="#323232"/><path d="m174.27 266.2v16h-37.69l3.14-8-3.14-8z" fill="#5a5a5a"/><path d="m368.045 438.587s1.354-26.656-19.65-34.242l-72.161-26.061c-7.902-2.854-27.682 3.575-27.682 3.575l-14.828-5.355-8.672 24.013 14.828 5.355s11.108 17.584 19.01 20.438l72.161 26.061c21.004 7.586 36.995-13.784 36.995-13.784z" fill="#464646"/><path d="m229.23 354.52-33.28-12.02.7 25.69.24 8.58-5.67 6.46-16.95 19.31 33.28 12.02 17.5-14.04 1.62-4.49 5.43-15.04 1.62-4.49z" fill="#323232"/><path d="m232.1 380.99-5.43 15.04-35.45-12.8 5.67-6.46-.24-8.58z" fill="#5a5a5a"/><path d="m421.463 118.574s-39.598-51.061-107.095-42.637c-45.603 5.691-190.616 45.879-190.616 45.879l-75.94-63.816-39.812 4.968 41.273 99.776 228.483-47.037z" fill="#5a8264"/><path d="m314.368 75.937c-11.749 1.466-30.104 5.225-50.872 9.994l14.26 29.776 143.707 2.867s-39.598-51.061-107.095-42.637z" fill="#afb4c8"/><g><path d="m505.822 130.085-79.94-18.693c-3.868-4.434-13.521-14.566-28.348-24.037-25.583-16.341-54.685-23.033-84.156-19.356-41.902 5.229-163.396 38.307-187.698 44.987l-72.721-61.111c-1.704-1.432-3.924-2.085-6.138-1.813l-39.812 4.968c-2.477.31-4.667 1.757-5.923 3.913-1.256 2.157-1.433 4.777-.479 7.083l37.574 90.833-18.621 3.833c-4.088.842-6.842 4.685-6.325 8.827l3.834 30.724c.263 2.104 1.351 4.02 3.026 5.322 1.674 1.303 3.794 1.887 5.903 1.625l34.116-4.258 53.068 11.501c.558.121 1.125.182 1.694.182.331 0 .662-.021.991-.062l24.845-3.101c4.384-.547 7.495-4.545 6.948-8.93-.547-4.384-4.551-7.496-8.929-6.947l-23.492 2.932-53.068-11.501c-.882-.191-1.79-.231-2.685-.12l-27.53 3.437-1.928-15.45 20.734-4.268.048-.01 26.69-5.494 111.725 39.448c.862.304 1.763.456 2.664.456.906 0 1.812-.154 2.679-.462l137.734-48.95c3.469-1.232 5.648-4.674 5.281-8.337s-3.188-6.603-6.833-7.121l-78.031-11.105 25.777-5.307 54.102 1.08c.055 0 .108.002.163.002 4.344 0 7.908-3.478 7.996-7.841.088-4.417-3.421-8.069-7.839-8.157l-50.073-1-7.798-16.283c16.44-3.65 30.693-6.448 40.314-7.649 25.892-3.229 50.476 2.371 73.067 16.649 5.107 3.228 9.531 6.56 13.235 9.653l-36.757-.733c-4.438-.082-8.07 3.421-8.158 7.839-.088 4.417 3.421 8.069 7.839 8.157l49.798.994 4.269 34.209-121.516 15.164c-4.384.547-7.495 4.545-6.948 8.929.505 4.049 3.952 7.011 7.929 7.011.33 0 .665-.021 1-.062l129.454-16.155c.654-.082 1.295-.243 1.909-.482l76.42-29.716c3.268-1.271 5.328-4.522 5.081-8.021-.247-3.498-2.744-6.427-6.158-7.226zm-209.494 21.312-104.449 37.12-84.021-29.667 98.445-20.266zm-30.206-41.463-211.985 43.64-34.733-83.967 25.935-3.236 73.266 61.569c2.018 1.695 4.742 2.287 7.283 1.584 1.035-.286 74.947-20.728 133.165-34.349l7.068 14.759zm168.126 46.481-3.424-27.436 46.198 10.803z"/><path d="m169.412 310.286 9.35-15.316h8.594c5.989 4.412 18.517 12.766 27.505 12.766h76.723c27.936 0 37.377-29.925 37.765-31.199.463-1.521.463-3.144 0-4.664-.388-1.274-9.83-31.199-37.765-31.199h-76.723c-8.988 0-21.517 8.354-27.505 12.766h-8.594l-9.35-15.315c-1.453-2.38-4.04-3.832-6.828-3.832h-35.384c-2.645 0-5.12 1.308-6.61 3.493s-1.804 4.966-.837 7.429l11.375 28.991-11.375 28.992c-.966 2.463-.653 5.243.837 7.429s3.965 3.493 6.61 3.493h35.384c2.788 0 5.375-1.452 6.828-3.832zm20.626-40.848c1.776 0 3.504-.593 4.907-1.682 7.477-5.801 16.969-11.084 19.915-11.084h76.723c12.841 0 19.362 12.239 21.582 17.531-2.219 5.292-8.741 17.531-21.582 17.531h-76.723c-2.946 0-12.438-5.283-19.912-11.081-1.404-1.092-3.132-1.685-4.91-1.685h-7.766v-9.531h7.766zm-31.944-19.147 8.178 13.397v2.517h-21.097l-6.243-15.913h19.162zm0 47.827h-19.162l6.244-15.914h21.097v2.517l-8.178 13.397z"/><path d="m351.112 396.82-15.467-5.586c-4.155-1.501-8.741.651-10.242 4.807-1.5 4.156.651 8.741 4.807 10.242l15.466 5.586c12.086 4.365 14.057 18.107 14.346 23.814-3.861 4.184-14.193 13.52-26.255 9.163l-72.161-26.062c-2.771-1-9.903-9.193-14.963-17.186-.95-1.504-2.374-2.647-4.046-3.252l-7.304-2.638 3.238-8.965 7.304 2.638c1.67.603 3.499.631 5.186.085 9.003-2.916 19.727-4.66 22.497-3.659l26.592 9.604c4.154 1.501 8.741-.651 10.242-4.807 1.5-4.156-.651-8.741-4.807-10.242l-26.591-9.604c-8.454-3.053-23.076.548-30.207 2.663l-8.082-2.919-3.591-17.581c-.558-2.732-2.499-4.977-5.121-5.924l-33.279-12.02c-2.488-.899-5.26-.51-7.403 1.04-2.144 1.55-3.384 4.059-3.312 6.703l.851 31.132-20.546 23.403c-1.746 1.988-2.395 4.71-1.736 7.272s2.542 4.632 5.03 5.53l33.28 12.02c.884.319 1.803.476 2.716.476 1.794 0 3.566-.604 5.007-1.76l13.997-11.23 8.083 2.919c4.133 6.184 13.08 18.296 21.533 21.349l72.161 26.062c4.188 1.512 8.187 2.15 11.962 2.149 19.915-.002 33.485-17.769 34.156-18.665.952-1.272 1.504-2.8 1.584-4.388.067-1.33 1.352-32.683-24.923-42.172zm-128.818-36.298 3.141 15.378-.855 2.367-19.842-7.166-.467-17.088 18.022 6.509zm-16.246 44.984-18.023-6.51 11.278-12.846 19.842 7.166-.855 2.367z"/></g></svg>