<?xml version="1.0" encoding="UTF-8"?>
<svg xmlns="http://www.w3.org/2000/svg" viewBox="0 0 64 64" width="512" height="512"><g id="_01-Economic_Crisis" data-name="01-Economic Crisis"><circle cx="32" cy="32" r="26" fill="#64b5f6"/><path d="M58,32A25.9992,25.9992,0,0,1,32,58c-.84,0-1.68-.04-2.5-.12a26.0005,26.0005,0,0,0,0-51.76C30.32,6.04,31.16,6,32,6A25.9992,25.9992,0,0,1,58,32Z" fill="#42a5f5"/><circle cx="18" cy="18" r="15" fill="#ffd54f"/><path d="M33,18A15.0055,15.0055,0,0,1,18,33a14.6,14.6,0,0,1-2-.14A14.9931,14.9931,0,0,0,16,3.14,14.6,14.6,0,0,1,18,3,15.0055,15.0055,0,0,1,33,18Z" fill="#ffca28"/><circle cx="18" cy="18" r="11" fill="#ffb74d"/><path d="M20,28.82A11,11,0,1,1,20,7.18a11.004,11.004,0,0,0,0,21.64Z" fill="#ffa726"/><path d="M22,52l.42,4.17A26.0172,26.0172,0,0,1,8.3,42.7L11,40l3,1,4-2,4,2,1,4,2,3Z" fill="#81c784"/><path d="M60,48H58a1,1,0,0,0-1,1v5L46.4142,43.4142a2,2,0,0,0-2.8284,0L40,47,30,37l-3,3L38.5858,51.5858a2,2,0,0,0,2.8284,0L45,48l9,9H49a1,1,0,0,0-1,1v2a1,1,0,0,0,1,1H59a2,2,0,0,0,2-2V49A1,1,0,0,0,60,48Z" fill="#ef5350"/><path d="M57.98,31.02,54,34H50l-3,1-3-2-1-4H40l-1-4,3-5-2-6,3.37-5.39A25.999,25.999,0,0,1,57.98,31.02Z" fill="#81c784"/><path d="M57.98,31.02,54,34H52.92c.05-.66.08-1.33.08-2A25.929,25.929,0,0,0,42.01,10.78l1.36-2.17A25.999,25.999,0,0,1,57.98,31.02Z" fill="#66bb6a"/><path d="M59,48H58a1,1,0,0,0-1,1v5L46.4142,43.4142a2,2,0,0,0-2.8284,0L40,47,30,37l-1.5,1.5L40,50l5-5L55.5858,55.5858A2,2,0,0,0,59,54.1716Z" fill="#e53935"/><path d="M20,20.5A1.5017,1.5017,0,0,0,18.5,19h-1a3.4922,3.4922,0,0,1-.5-6.9495V11a1,1,0,0,1,2,0v1h2a1,1,0,0,1,0,2H17.5a1.5,1.5,0,0,0,0,3h1a3.4922,3.4922,0,0,1,.5,6.95V25a1,1,0,0,1-2,0V24H15a1,1,0,0,1,0-2h3.5A1.5017,1.5017,0,0,0,20,20.5ZM31.7305,5.9922a.9677.9677,0,0,1,1.0273-.9717A26.9975,26.9975,0,0,1,55.0532,46.062a1,1,0,1,1-1.706-1.0439,24.9066,24.9066,0,0,0,3.6176-11.989L54.5991,34.8A.9961.9961,0,0,1,54,35H50.1621l-2.8457.9487a1,1,0,0,1-.8711-.1167l-3-2a1.0013,1.0013,0,0,1-.4155-.5893L42.2192,30H40a1,1,0,0,1-.97-.7573l-1-4a.9989.9989,0,0,1,.1128-.7573L40.9058,19.88l-1.8545-5.5635a1,1,0,0,1,.1006-.8462L41.9236,9.032A25.1992,25.1992,0,0,0,32.7021,7.02.9992.9992,0,0,1,31.7305,5.9922Zm12.01,3.9059L41.0977,14.13l1.851,5.5532a1,1,0,0,1-.0913.831l-2.7866,4.6446L40.7808,28H43a1,1,0,0,1,.97.7573l.9063,3.625,2.2714,1.5142,2.5357-.8452A.9956.9956,0,0,1,50,33h3.667l3.2879-2.4614A24.8287,24.8287,0,0,0,43.7407,9.8981Zm2.6524,43.78a1.0005,1.0005,0,0,1-.3311,1.375A26.9975,26.9975,0,0,1,5.0205,32.7578a1,1,0,0,1,1.999-.0557,25.2618,25.2618,0,0,0,1.6181,8.2463L10.293,39.293a1,1,0,0,1,1.0234-.2417l2.6069.8691,3.6294-1.8149a1.0008,1.0008,0,0,1,.8946,0l4,2a1,1,0,0,1,.5229.6518l.958,3.8321,1.9038,2.8559A1,1,0,0,1,25.8,48.6l-2.7656,3.688.322,3.1976A25.23,25.23,0,0,0,32,57a24.9358,24.9358,0,0,0,13.0181-3.6528A1.0012,1.0012,0,0,1,46.3931,53.6782Zm-25.135.936L21.0049,52.1a1,1,0,0,1,.1953-.7l2.5752-3.4341L22.168,45.5547a1.0036,1.0036,0,0,1-.1382-.312l-.8882-3.5537L18,40.1182l-3.5527,1.7763a1.0065,1.0065,0,0,1-.7637.0542L11.27,41.144,9.4878,42.9263A24.8,24.8,0,0,0,21.2581,54.6142ZM2,18A16,16,0,1,1,18,34,16.0183,16.0183,0,0,1,2,18Zm2,0A14,14,0,1,0,18,4,14.0158,14.0158,0,0,0,4,18Zm2,0A12,12,0,1,1,18,30,12.0137,12.0137,0,0,1,6,18Zm2,0A10,10,0,1,0,18,8,10.0111,10.0111,0,0,0,8,18ZM62,49V59a3.0033,3.0033,0,0,1-3,3H49a2.002,2.002,0,0,1-2-2V58a2.002,2.002,0,0,1,2-2h2.5859L45,49.4141,42.1211,52.293a3.0025,3.0025,0,0,1-4.2422,0L26.293,40.707a.9994.9994,0,0,1,0-1.414l3-3a.9994.9994,0,0,1,1.414,0L40,45.5859l2.8789-2.8789a3.0726,3.0726,0,0,1,4.2422,0L56,51.5859V49a2.002,2.002,0,0,1,2-2h2A2.002,2.002,0,0,1,62,49Zm-2,0H58v5a1,1,0,0,1-1.707.707L45.707,44.1211a1.0012,1.0012,0,0,0-1.414,0L40.707,47.707a.9994.9994,0,0,1-1.414,0L30,38.4141,28.4141,40,39.293,50.8789a1.0012,1.0012,0,0,0,1.414,0l3.586-3.5859a.9994.9994,0,0,1,1.414,0l9,9A1,1,0,0,1,54,58H49v2H59a1.0013,1.0013,0,0,0,1-1Z"/></g></svg>
