<svg height="512" viewBox="0 0 512 512" width="512" xmlns="http://www.w3.org/2000/svg"><g id="Layer_20" data-name="Layer 20"><path d="m366.227 361.865 49.773-49.774-40-40-70.727 70.727z" fill="#b5b5b5"/><path d="m305.273 342.818 60.954 19.047 25.773-25.774-40-40z" fill="#606060"/><path d="m412.013 405.307a48 48 0 0 0 -33.271-39.532l-98.742-30.855v-39.641a95.191 95.191 0 0 1 -80 0v39.641l-98.742 30.855a48 48 0 0 0 -33.271 39.532l-11.987 90.784h368z" fill="#fbdea9"/><path d="m412.013 405.307a48 48 0 0 0 -33.271-39.532l-97.642-30.51-1.1.826a54.626 54.626 0 0 1 -38.627 16h-2.746a54.626 54.626 0 0 1 -38.627-16l-2.329-.444-96.413 30.128a48 48 0 0 0 -33.271 39.532l-11.987 90.784h368z" fill="#89b153"/><path d="m348 416.091a113.66 113.66 0 0 1 -12-50.833v-29.167l-32-8v32a16 16 0 0 1 -16 16h-96a16 16 0 0 1 -16-16v-32l-32 8v29.167a113.66 113.66 0 0 1 -12 50.833 113.66 113.66 0 0 0 -12 50.833v29.167h240v-29.167a113.66 113.66 0 0 0 -12-50.833z" fill="#759d48"/><path d="m412.013 405.307a47.941 47.941 0 0 0 -28.135-37.51l-11.334 17.477a12.3 12.3 0 0 0 0 13.636l9.384 14.09a12.3 12.3 0 0 1 2.063 6.807 12.294 12.294 0 0 0 12.294 12.285h19.264z" fill="#98c05c"/><path d="m83.715 432.091a12.294 12.294 0 0 0 12.294-12.285 12.3 12.3 0 0 1 2.063-6.806l9.386-14.089a12.3 12.3 0 0 0 0-13.636l-12.964-16.78a47.988 47.988 0 0 0 -26.505 36.813l-3.536 26.784z" fill="#98c05c"/><rect fill="#89b153" height="80" rx="16" width="80" x="160" y="416.091"/><rect fill="#98c05c" height="80" rx="16" width="64" x="176" y="416.091"/><rect fill="#89b153" height="80" rx="16" width="80" x="240" y="416.091"/><path d="m144 160.091h192a0 0 0 0 1 0 0v48a96 96 0 0 1 -96 96 96 96 0 0 1 -96-96v-48a0 0 0 0 1 0 0z" fill="#f5cd90"/><path d="m144 208.091v-24h-8a24 24 0 0 0 0 48h11.146a95.889 95.889 0 0 1 -3.146-24z" fill="#f5cd90"/><path d="m344 184.091h-8v24a95.889 95.889 0 0 1 -3.146 24h11.146a24 24 0 0 0 0-48z" fill="#f5cd90"/><path d="m252 303.262a95.959 95.959 0 0 0 84-95.171v-48h-168v48a95.959 95.959 0 0 0 84 95.171z" fill="#fbe3bc"/><rect fill="#759d48" height="32" rx="16" width="272" x="104" y="128.091"/><path d="m360 128.091h-240a16 16 0 0 0 16 16h240a16 16 0 0 0 -16-16z" fill="#89b153"/><path d="m240 16.091a112 112 0 0 0 -112 112h224a112 112 0 0 0 -112-112z" fill="#759d48"/><rect fill="#759d48" height="32" rx="16" width="96" x="192" y="280.091"/><g fill="#89b153"><path d="m272 280.091h-64a16 16 0 0 0 16 16h64a16 16 0 0 0 -16-16z"/><path d="m281.125 23.988-10.238 23.669a54.055 54.055 0 0 0 -1.023 36.007 12.476 12.476 0 0 0 8.688 8.322l14.395 3.723a12.242 12.242 0 0 0 14.653-8.322 19.359 19.359 0 0 1 18.3-13.645h12a112.292 112.292 0 0 0 -56.775-49.754z"/><path d="m135.485 88.091h10.067a27.316 27.316 0 0 1 12.215 2.883l4.466 2.233a27.3 27.3 0 0 0 12.215 2.884h6.239a27.314 27.314 0 0 0 27.313-27.314v-1.372a27.311 27.311 0 0 0 -8-19.314l-16.559-16.554a112.207 112.207 0 0 0 -47.956 56.554z"/></g><path d="m386.059 251.121h67.882v33.941h-67.882z" fill="#606060" transform="matrix(.707 -.707 .707 .707 -66.554 375.507)"/><path d="m440 240.091-23.029 23.029a23.937 23.937 0 0 0 -.873 32.873l39.9-39.9z" fill="#939393"/><path d="m400 216.091a33.941 33.941 0 0 0 0 48l24-24z" fill="#939393"/><rect fill="#98c05c" height="80" rx="16" width="64" x="256" y="416.091"/><path d="m384.1 280.189a23.936 23.936 0 0 0 .873 32.872l15.027 15.03 16-16z" fill="#ccc"/><path d="m192 224.091a8 8 0 0 0 8-8v-24a8 8 0 0 0 -16 0v24a8 8 0 0 0 8 8z"/><path d="m288 224.091a8 8 0 0 0 8-8v-24a8 8 0 0 0 -16 0v24a8 8 0 0 0 8 8z"/><path d="m461.656 250.435-24-24a8 8 0 0 0 -11.312 0l-2.344 2.344-18.344-18.344a8 8 0 0 0 -11.312 0 41.9 41.9 0 0 0 -5.105 53.105l-5.239 5.239-2.344-2.344a8 8 0 0 0 -11.312 0l-56 56-8.406-2.1a8 8 0 0 0 -9.938 7.756v3.448l-8-2.5v-15.19a23.838 23.838 0 0 0 7.918-16.948 104.433 104.433 0 0 0 43.318-56.81h4.764a32 32 0 0 0 0-64v-8h16a24 24 0 0 0 0-48h-.4c-4.148-62.436-56.124-112-119.6-112s-115.447 49.564-119.595 112h-.405a24 24 0 1 0 0 48h16v8a32 32 0 0 0 0 64h4.764a104.433 104.433 0 0 0 43.318 56.81 23.838 23.838 0 0 0 7.918 16.948v15.188l-8 2.5v-3.448a7.99 7.99 0 0 0 -3.078-6.3 7.89 7.89 0 0 0 -6.86-1.454l-32 8a8 8 0 0 0 -6.062 7.756v10.451l-37.125 11.6a56.168 56.168 0 0 0 -38.82 46.117l-11.985 90.785a8 8 0 0 0 7.93 9.047h368a8 8 0 0 0 7.93-9.047l-11.985-90.781a56.164 56.164 0 0 0 -38.725-46.08l40.436-40.436a8 8 0 0 0 0-11.312l-2.344-2.344 42.344-42.344a8 8 0 0 0 0-11.312zm-60.773-22.148 11.805 11.8-11.715 11.715a25.5 25.5 0 0 1 -.09-23.519zm-48.883 79.113 28.688 28.687-16.7 16.7-19.988-6.245v-10.451a8 8 0 0 0 -6.062-7.758l-5.494-1.373zm8-99.313a16.019 16.019 0 0 1 -16 16h-1.1a103.157 103.157 0 0 0 1.1-14.828v-17.168a16.019 16.019 0 0 1 16 16zm-81.523-157.5 6.275-16.235a104.5 104.5 0 0 1 38.357 31.478 27.445 27.445 0 0 0 -23.25 19.07 4.062 4.062 0 0 1 -4.875 2.933l-14.4-3.722a4.317 4.317 0 0 1 -2.977-2.938 45.945 45.945 0 0 1 .87-30.582zm-96.342-8.857 12.115 12.115a19.064 19.064 0 0 1 5.617 13.555v1.375a19.178 19.178 0 0 1 -19.179 19.175h-6.243a19.252 19.252 0 0 1 -8.57-2.023l-4.469-2.227a35.569 35.569 0 0 0 -13.573-3.609 104.679 104.679 0 0 1 34.302-38.361zm-46.135 182.361a16 16 0 0 1 0-32v17.172a103.157 103.157 0 0 0 1.1 14.828zm-16-72a8 8 0 0 1 0-16h40a8 8 0 0 0 0-16h-23.595a103.322 103.322 0 0 1 4.635-23.863h4.515a19.252 19.252 0 0 1 8.57 2.023l4.469 2.235a35.61 35.61 0 0 0 15.851 3.742h6.243a35.45 35.45 0 0 0 35.445-35.449v-1.379a35.208 35.208 0 0 0 -10.383-25.063l-8.8-8.8a102.853 102.853 0 0 1 72.65-5.1l-6.295 16.283a62.2 62.2 0 0 0 -1.18 41.438 20.5 20.5 0 0 0 14.391 13.707l14.39 3.722a19.911 19.911 0 0 0 4.992.633 20.55 20.55 0 0 0 19.446-14.336 11.232 11.232 0 0 1 10.562-8h7.125a103.067 103.067 0 0 1 10.569 38.207h-151.6a8 8 0 1 0 0 16h168a8 8 0 0 1 0 16zm69.426 128.989a88.233 88.233 0 0 1 -37.426-71.817v-41.172h176v41.172a88.233 88.233 0 0 1 -37.426 71.817 23.862 23.862 0 0 0 -18.574-8.989h-64a23.862 23.862 0 0 0 -18.574 8.989zm18.574 23.011a8 8 0 0 1 0-16h64a8 8 0 0 1 0 16zm64 16v12.463a46.945 46.945 0 0 1 -30.625 11.537h-2.75a46.945 46.945 0 0 1 -30.625-11.537v-12.463zm-88 28.209 13.07-4.085a63.045 63.045 0 0 0 41.555 15.879h2.75a63.045 63.045 0 0 0 41.555-15.879l13.07 4.085v11.794a8.005 8.005 0 0 1 -8 8h-96a8.005 8.005 0 0 1 -8-8zm-108.086 58.057a40.159 40.159 0 0 1 17.352-27.945l7.531 11.3a4.285 4.285 0 0 1 .008 4.766l-9.391 14.082a20.242 20.242 0 0 0 -3.406 11.25 4.29 4.29 0 0 1 -4.289 4.281h-10.146zm36.086 60.57v21.164h-46.875l6.336-48h12.258a20.31 20.31 0 0 0 20.289-20.281 4.264 4.264 0 0 1 .719-2.375l9.4-14.094a20.245 20.245 0 0 0 -.016-22.508l-5.9-8.85 27.789-8.683v1.958a106.216 106.216 0 0 1 -11.156 47.258 122.352 122.352 0 0 0 -12.844 54.411zm120 13.164a8.005 8.005 0 0 1 -8 8h-48a8.005 8.005 0 0 1 -8-8v-48a8.005 8.005 0 0 1 8-8h48a8.005 8.005 0 0 1 8 8zm120 8h-25.474a23.727 23.727 0 0 0 1.474-8v-48a24.027 24.027 0 0 0 -24-24 8 8 0 0 0 0 16 8.005 8.005 0 0 1 8 8v48a8.005 8.005 0 0 1 -8 8h-48a8.005 8.005 0 0 1 -8-8v-48a8.005 8.005 0 0 1 8-8h16a8 8 0 0 0 0-16h-16a23.816 23.816 0 0 0 -16 6.242 23.816 23.816 0 0 0 -16-6.242h-48a24.027 24.027 0 0 0 -24 24v48a23.7 23.7 0 0 0 1.475 8h-25.475v-21.164a106.219 106.219 0 0 1 11.156-47.258 122.349 122.349 0 0 0 12.844-54.414v-22.914l16-4v21.75a24.026 24.026 0 0 0 24 24h96a24.026 24.026 0 0 0 24-24v-21.75l16 4v22.914a122.349 122.349 0 0 0 12.844 54.414 106.219 106.219 0 0 1 11.156 47.258zm62.875 0h-46.875v-21.164a122.352 122.352 0 0 0 -12.844-54.414 106.216 106.216 0 0 1 -11.156-47.258v-1.955l27.791 8.686-5.9 8.85a20.243 20.243 0 0 0 -.008 22.516l9.39 14.086a4.264 4.264 0 0 1 .719 2.375 20.31 20.31 0 0 0 20.289 20.281h12.257zm-28.141-109.68a40.161 40.161 0 0 1 17.352 27.946l2.34 17.73h-10.145a4.29 4.29 0 0 1 -4.289-4.281 20.242 20.242 0 0 0 -3.406-11.25l-9.386-14.074a4.283 4.283 0 0 1 0-4.774zm5.266-53.632-28.688-28.688 12.688-12.691 28.688 28.687zm16-32-12.688-12.688 36.688-36.691 12.688 12.687z"/></g></svg>