<svg height="512" viewBox="0 0 64 64" width="512" xmlns="http://www.w3.org/2000/svg"><g id="Layer_2" data-name="Layer 2"><path d="m5 25h54v34h-54z" fill="#e6e6e6"/><g fill="#cecece"><path d="m15 25h4v34h-4z"/><path d="m13 25h8a0 0 0 0 1 0 0v2a2 2 0 0 1 -2 2h-4a2 2 0 0 1 -2-2v-2a0 0 0 0 1 0 0z"/><path d="m39 25h8a0 0 0 0 1 0 0v2a2 2 0 0 1 -2 2h-4a2 2 0 0 1 -2-2v-2a0 0 0 0 1 0 0z"/><path d="m51 25h8a0 0 0 0 1 0 0v2a2 2 0 0 1 -2 2h-4a2 2 0 0 1 -2-2v-2a0 0 0 0 1 0 0z"/><path d="m41 25h4v34h-4z"/><path d="m53 25h4v34h-4z"/><path d="m8 26v-1h-3v34h54v-3h-21a30 30 0 0 1 -30-30z"/></g><path d="m3 21h58v4h-58z" fill="#e6e6e6"/><path d="m3 21h3v4h-3z" fill="#cecece"/><path d="m3 59h58a2 2 0 0 1 2 2v2a0 0 0 0 1 0 0h-62a0 0 0 0 1 0 0v-2a2 2 0 0 1 2-2z" fill="#7a838b"/><path d="m6 59h-3a2 2 0 0 0 -2 2v2h3v-2a2 2 0 0 1 2-2z" fill="#5d6972"/><rect fill="#7a838b" height="4" rx="2" width="62" x="1" y="17"/><path d="m4 19a2 2 0 0 1 2-2h-3a2 2 0 0 0 0 4h3a2 2 0 0 1 -2-2z" fill="#5d6972"/><path d="m3 17 29-16 29 16z" fill="#7a838b"/><path d="m32 1-29 16h5l26.5-14.621z" fill="#5d6972"/><path d="m11 17 21-11 21 11z" fill="#e6e6e6"/><path d="m3 25h8a0 0 0 0 1 0 0v2a2 2 0 0 1 -2 2h-4a2 2 0 0 1 -2-2v-2a0 0 0 0 1 0 0z" fill="#7a838b"/><path d="m5 29h4v26h-4z" fill="#7a838b"/><path d="m5 55h4a2 2 0 0 1 2 2v2a0 0 0 0 1 0 0h-8a0 0 0 0 1 0 0v-2a2 2 0 0 1 2-2z" fill="#7a838b"/><path d="m8 55h-3a2 2 0 0 0 -2 2v2h3v-2a2 2 0 0 1 2-2z" fill="#5d6972"/><path d="m8 28.736h-3a2 2 0 0 1 -2-2v-2h3v2a2 2 0 0 0 2 2z" fill="#5d6972"/><path d="m15 25h8a0 0 0 0 1 0 0v2a2 2 0 0 1 -2 2h-4a2 2 0 0 1 -2-2v-2a0 0 0 0 1 0 0z" fill="#7a838b"/><path d="m20 29h-3a2 2 0 0 1 -2-2v-2h3v2a2 2 0 0 0 2 2z" fill="#5d6972"/><path d="m17 29h4v26h-4z" fill="#7a838b"/><path d="m17 55h4a2 2 0 0 1 2 2v2a0 0 0 0 1 0 0h-8a0 0 0 0 1 0 0v-2a2 2 0 0 1 2-2z" fill="#7a838b"/><path d="m20 55h-3a2 2 0 0 0 -2 2v2h3v-2a2 2 0 0 1 2-2z" fill="#5d6972"/><path d="m55 25h4a2 2 0 0 1 2 2v2a0 0 0 0 1 0 0h-8a0 0 0 0 1 0 0v-2a2 2 0 0 1 2-2z" fill="#7a838b" transform="matrix(-1 0 0 -1 114 54)"/><path d="m55 29h4v26h-4z" fill="#7a838b" transform="matrix(-1 0 0 -1 114 84)"/><path d="m53 55h8a0 0 0 0 1 0 0v2a2 2 0 0 1 -2 2h-4a2 2 0 0 1 -2-2v-2a0 0 0 0 1 0 0z" fill="#7a838b" transform="matrix(-1 0 0 -1 114 114)"/><path d="m43 25h4a2 2 0 0 1 2 2v2a0 0 0 0 1 0 0h-8a0 0 0 0 1 0 0v-2a2 2 0 0 1 2-2z" fill="#7a838b" transform="matrix(-1 0 0 -1 90 54)"/><path d="m46 29h-3a2 2 0 0 1 -2-2v-2h3v2a2 2 0 0 0 2 2z" fill="#5d6972"/><path d="m58 29h-3a2 2 0 0 1 -2-2v-2h3v2a2 2 0 0 0 2 2z" fill="#5d6972"/><path d="m43 29h4v26h-4z" fill="#7a838b" transform="matrix(-1 0 0 -1 90 84)"/><path d="m41 55h8a0 0 0 0 1 0 0v2a2 2 0 0 1 -2 2h-4a2 2 0 0 1 -2-2v-2a0 0 0 0 1 0 0z" fill="#7a838b" transform="matrix(-1 0 0 -1 90 114)"/><path d="m46 55h-3a2 2 0 0 0 -2 2v2h3v-2a2 2 0 0 1 2-2z" fill="#5d6972"/><path d="m58 55h-3a2 2 0 0 0 -2 2v2h3v-2a2 2 0 0 1 2-2z" fill="#5d6972"/><path d="m26 37h12v22h-12z" fill="#a7d0e1"/><path d="m26 37v3h5a4 4 0 0 1 4 4v15h3v-22z" fill="#80bbce"/><rect fill="#7a838b" height="4" rx="2" width="16" x="24" y="33"/><path d="m27 35a2 2 0 0 1 2-2h-3a2 2 0 0 0 0 4h3a2 2 0 0 1 -2-2z" fill="#5d6972"/><path d="m62 58.184v-1.184a3 3 0 0 0 -2-2.816v-24.368a3 3 0 0 0 2-2.816v-5.184a2.983 2.983 0 0 0 -.685-5.784l-28.832-15.907a.994.994 0 0 0 -.966 0l-28.832 15.907a2.983 2.983 0 0 0 -.685 5.784v5.184a3 3 0 0 0 2 2.816v24.368a3 3 0 0 0 -2 2.816v1.184a3 3 0 0 0 -2 2.816v2a1 1 0 0 0 1 1h62a1 1 0 0 0 1-1v-2a3 3 0 0 0 -2-2.816zm-12-.184v-1a3 3 0 0 0 -2-2.816v-24.368a3 3 0 0 0 2-2.816v-1h2v1a3 3 0 0 0 2 2.816v3.184a1 1 0 0 0 2 0v-3h2v24h-2v-17a1 1 0 0 0 -2 0v17.184a3 3 0 0 0 -2 2.816v1zm-11 0v-20.184a2.993 2.993 0 0 0 -1-5.816h-12a2.993 2.993 0 0 0 -1 5.816v20.184h-1v-1a3 3 0 0 0 -2-2.816v-24.368a3 3 0 0 0 2-2.816v-1h16v1a3 3 0 0 0 2 2.816v24.368a3 3 0 0 0 -2 2.816v1zm-12-20h5a1 1 0 0 0 0-2h-6a1 1 0 0 1 0-2h12a1 1 0 0 1 0 2h-2a1 1 0 0 0 0 2h1v20h-10zm-15 20v-1a3 3 0 0 0 -2-2.816v-3.184a1 1 0 0 0 -2 0v3h-2v-24h2v17a1 1 0 0 0 2 0v-17.184a3 3 0 0 0 2-2.816v-1h2v1a3 3 0 0 0 2 2.816v24.368a3 3 0 0 0 -2 2.816v1zm-8-31v-1h6v1a1 1 0 0 1 -1 1h-4a1 1 0 0 1 -1-1zm14 3h2v24h-2zm3-2h-4a1 1 0 0 1 -1-1v-1h6v1a1 1 0 0 1 -1 1zm-5 29a1 1 0 0 1 1-1h4a1 1 0 0 1 1 1v1h-6zm28-27h2v24h-2zm3-2h-4a1 1 0 0 1 -1-1v-1h6v1a1 1 0 0 1 -1 1zm-5 29a1 1 0 0 1 1-1h4a1 1 0 0 1 1 1v1h-6zm12 0a1 1 0 0 1 1-1h4a1 1 0 0 1 1 1v1h-6zm6-30a1 1 0 0 1 -1 1h-4a1 1 0 0 1 -1-1v-1h6zm-28-24.858 25.118 13.858h-50.236zm-29 15.858h58a1 1 0 0 1 0 2h-8a1 1 0 0 0 0 2h7v2h-56v-2h45a1 1 0 0 0 0-2h-46a1 1 0 0 1 0-2zm1 39a1 1 0 0 1 1-1h4a1 1 0 0 1 1 1v1h-6zm58 5h-60v-1a1 1 0 0 1 1-1h58a1 1 0 0 1 1 1z"/><path d="m17.75 13.464a1 1 0 0 0 1.35.422l12.9-6.757 12.9 6.757a1 1 0 0 0 .928-1.772l-13.364-7a1 1 0 0 0 -.928 0l-13.364 7a1 1 0 0 0 -.422 1.35z"/><path d="m61 20h-2a1 1 0 0 1 0-2h2a1 1 0 0 1 0 2z" fill="#fff"/></g></svg>